# ProBuilder 5.2.3
# https://unity3d.com/unity/features/worldbuilding/probuilder
# 07/12/2024 02:03:15 a. m.

mtllib ./Arch_2.mtl
o Arch 2

g Arch (24)
v -1.75 2.607 -1.192093E-07
v -1.75 5.15195 0
v -1.25 2.77695 -1.192093E-07
v -1.24398 2.850463 -1.192093E-07
v -1.225983 2.923269 -1.192093E-07
v -1.196175 2.994665 -1.192093E-07
v -1.15485 3.063964 -1.192093E-07
v -1.102402 3.130498 -1.192093E-07
v -1.039337 3.193628 -1.192093E-07
v -0.9662628 3.252746 -1.192093E-07
v -0.8838844 3.307281 -1.192093E-07
v -0.7929916 3.356708 -1.192093E-07
v -0.6944618 3.400552 -1.192093E-07
v -0.5892448 3.438392 -1.192093E-07
v -0.4783554 3.46986 -1.192093E-07
v -0.3628559 3.494655 -1.192093E-07
v -0.2438622 3.51254 -1.192093E-07
v -0.1225204 3.52334 -1.192093E-07
v 0 5.15195 -1.192093E-07
v 0 3.52695 -1.192093E-07
v 1.75 5.15195 -1.192093E-07
v 0.1225204 3.52334 -1.192093E-07
v 0.2438622 3.51254 -1.192093E-07
v 0.3628559 3.494655 -1.192093E-07
v 0.4783554 3.46986 -1.192093E-07
v 0.5892448 3.438392 -1.192093E-07
v 0.6944618 3.400552 -1.192093E-07
v 0.7929916 3.356708 -1.192093E-07
v 0.8838844 3.307281 -1.192093E-07
v 0.9662628 3.252746 -1.192093E-07
v 1.039337 3.193628 -1.192093E-07
v 1.102402 3.130498 -1.192093E-07
v 1.15485 3.063964 -1.192093E-07
v 1.196175 2.994665 -1.192093E-07
v 1.225983 2.923269 -1.192093E-07
v 1.24398 2.850463 -1.192093E-07
v 1.75 2.607 0
v 1.25 2.77695 -1.192093E-07
v -1.75 -6.196099 -0.0001684129
v -1.25 -1.343409 -1.192093E-07
v 1.25 -1.343409 -1.192093E-07
v 1.75 -6.196099 -0.0001682937
v 0 -1.343409 -1.192093E-07
v 0 -6.196099 -0.0001684129

vt 0 8.8031
vt 0 11.34805
vt 0.5 8.973049
vt 0.5060196 9.046562
vt 0.5240173 9.119368
vt 0.5538254 9.190763
vt 0.59515 9.260063
vt 0.6475983 9.326597
vt 0.7106628 9.389727
vt 0.7837372 9.448845
vt 0.8661156 9.50338
vt 0.9570084 9.552807
vt 1.055538 9.596651
vt 1.160755 9.634491
vt 1.271645 9.665958
vt 1.387144 9.690754
vt 1.506138 9.708639
vt 1.62748 9.719439
vt 1.75 11.34805
vt 1.75 9.723049
vt 3.5 11.34805
vt 1.87252 9.719439
vt 1.993862 9.708639
vt 2.112856 9.690754
vt 2.228355 9.665958
vt 2.339245 9.634491
vt 2.444462 9.596651
vt 2.542992 9.552807
vt 2.633884 9.50338
vt 2.716263 9.448845
vt 2.789337 9.389727
vt 2.852402 9.326597
vt 2.90485 9.260063
vt 2.946175 9.190763
vt 2.975983 9.119368
vt 2.99398 9.046562
vt 3.5 8.8031
vt 3 8.973049
vt 0 0
vt 0.5 4.852691
vt 3 4.852691
vt 3.5 0
vt 1.75 4.852691
vt 1.75 0

vn 1.592143E-08 -4.684151E-08 1

usemtl Mat_StoneWall
f 4/4/1 5/5/1 2/2/1
f 5/5/1 6/6/1 2/2/1
f 6/6/1 7/7/1 2/2/1
f 7/7/1 8/8/1 2/2/1
f 8/8/1 9/9/1 2/2/1
f 9/9/1 10/10/1 2/2/1
f 10/10/1 11/11/1 2/2/1
f 11/11/1 12/12/1 2/2/1
f 12/12/1 13/13/1 2/2/1
f 13/13/1 14/14/1 2/2/1
f 14/14/1 15/15/1 2/2/1
f 15/15/1 16/16/1 2/2/1
f 16/16/1 17/17/1 2/2/1
f 17/17/1 18/18/1 2/2/1
f 22/22/1 23/23/1 21/21/1
f 23/23/1 24/24/1 21/21/1
f 24/24/1 25/25/1 21/21/1
f 25/25/1 26/26/1 21/21/1
f 26/26/1 27/27/1 21/21/1
f 27/27/1 28/28/1 21/21/1
f 28/28/1 29/29/1 21/21/1
f 29/29/1 30/30/1 21/21/1
f 30/30/1 31/31/1 21/21/1
f 31/31/1 32/32/1 21/21/1
f 32/32/1 33/33/1 21/21/1
f 33/33/1 34/34/1 21/21/1
f 34/34/1 35/35/1 21/21/1
f 35/35/1 36/36/1 21/21/1
f 4/4/1 2/2/1 1/1/1
f 1/1/1 3/3/1 4/4/1
f 20/20/1 19/19/1 2/2/1
f 2/2/1 18/18/1 20/20/1
f 22/22/1 21/21/1 19/19/1
f 19/19/1 20/20/1 22/22/1
f 38/38/1 37/37/1 21/21/1
f 21/21/1 36/36/1 38/38/1
f 40/40/1 3/3/1 1/1/1
f 1/1/1 39/39/1 40/40/1
f 42/42/1 37/37/1 38/38/1
f 38/38/1 41/41/1 42/42/1
f 44/44/1 42/42/1 41/41/1
f 41/41/1 43/43/1 44/44/1
f 43/43/1 40/40/1 39/39/1
f 39/39/1 44/44/1 43/43/1

