# ProBuilder 5.2.3
# https://unity3d.com/unity/features/worldbuilding/probuilder
# 07/12/2024 02:03:42 a. m.

mtllib ./Arch_4.mtl
o Arch 4

g Arch (20)
v -1.75 2.607 -1.192093E-07
v -1.75 5.15195 0
v -1.25 2.77695 -1.192093E-07
v -1.24398 2.850463 -1.192093E-07
v -1.225983 2.923269 -1.192093E-07
v -1.196175 2.994665 -1.192093E-07
v -1.15485 3.063964 -1.192093E-07
v -1.102402 3.130498 -1.192093E-07
v -1.039337 3.193628 -1.192093E-07
v -0.9662628 3.252746 -1.192093E-07
v -0.8838844 3.307281 -1.192093E-07
v -0.7929916 3.356708 -1.192093E-07
v -0.6944618 3.400552 -1.192093E-07
v -0.5892448 3.438392 -1.192093E-07
v -0.4783554 3.46986 -1.192093E-07
v -0.3628559 3.494655 -1.192093E-07
v -0.2438622 3.51254 -1.192093E-07
v -0.1225204 3.52334 -1.192093E-07
v 0 5.15195 -1.192093E-07
v 0 3.52695 -1.192093E-07
v 1.75 5.15195 -1.192093E-07
v 0.1225204 3.52334 -1.192093E-07
v 0.2438622 3.51254 -1.192093E-07
v 0.3628559 3.494655 -1.192093E-07
v 0.4783554 3.46986 -1.192093E-07
v 0.5892448 3.438392 -1.192093E-07
v 0.6944618 3.400552 -1.192093E-07
v 0.7929916 3.356708 -1.192093E-07
v 0.8838844 3.307281 -1.192093E-07
v 0.9662628 3.252746 -1.192093E-07
v 1.039337 3.193628 -1.192093E-07
v 1.102402 3.130498 -1.192093E-07
v 1.15485 3.063964 -1.192093E-07
v 1.196175 2.994665 -1.192093E-07
v 1.225983 2.923269 -1.192093E-07
v 1.24398 2.850463 -1.192093E-07
v 1.75 2.607 0
v 1.25 2.77695 -1.192093E-07
v -1.75 -6.196099 -0.0001684129
v -1.25 -1.343409 -1.192093E-07
v 1.25 -1.343409 -1.192093E-07
v 1.75 -6.196099 -0.0001682937
v 0 -1.343409 -1.192093E-07
v 0 -6.196099 -0.0001684129

vt -1.75 2.607
vt -1.75 5.15195
vt -1.25 2.77695
vt -1.24398 2.850463
vt -1.225983 2.923269
vt -1.196175 2.994665
vt -1.15485 3.063964
vt -1.102402 3.130498
vt -1.039337 3.193628
vt -0.9662628 3.252746
vt -0.8838844 3.307281
vt -0.7929916 3.356708
vt -0.6944618 3.400552
vt -0.5892448 3.438392
vt -0.4783554 3.46986
vt -0.3628559 3.494655
vt -0.2438622 3.51254
vt -0.1225204 3.52334
vt 8.120489E-15 5.15195
vt 8.120489E-15 3.52695
vt 1.75 5.15195
vt 0.1225204 3.52334
vt 0.2438622 3.51254
vt 0.3628559 3.494655
vt 0.4783554 3.46986
vt 0.5892448 3.438392
vt 0.6944618 3.400552
vt 0.7929916 3.356708
vt 0.8838844 3.307281
vt 0.9662628 3.252746
vt 1.039337 3.193628
vt 1.102402 3.130498
vt 1.15485 3.063964
vt 1.196175 2.994665
vt 1.225983 2.923269
vt 1.24398 2.850463
vt 1.75 2.607
vt 1.25 2.77695
vt -1.75 -6.196099
vt -1.25 -1.343409
vt 1.25 -1.343409
vt 1.75 -6.196099
vt 0 -1.343409
vt 0 -6.196099

vn 1.592143E-08 -4.684151E-08 1

usemtl Mat_StoneWall
f 4/4/1 5/5/1 2/2/1
f 5/5/1 6/6/1 2/2/1
f 6/6/1 7/7/1 2/2/1
f 7/7/1 8/8/1 2/2/1
f 8/8/1 9/9/1 2/2/1
f 9/9/1 10/10/1 2/2/1
f 10/10/1 11/11/1 2/2/1
f 11/11/1 12/12/1 2/2/1
f 12/12/1 13/13/1 2/2/1
f 13/13/1 14/14/1 2/2/1
f 14/14/1 15/15/1 2/2/1
f 15/15/1 16/16/1 2/2/1
f 16/16/1 17/17/1 2/2/1
f 17/17/1 18/18/1 2/2/1
f 22/22/1 23/23/1 21/21/1
f 23/23/1 24/24/1 21/21/1
f 24/24/1 25/25/1 21/21/1
f 25/25/1 26/26/1 21/21/1
f 26/26/1 27/27/1 21/21/1
f 27/27/1 28/28/1 21/21/1
f 28/28/1 29/29/1 21/21/1
f 29/29/1 30/30/1 21/21/1
f 30/30/1 31/31/1 21/21/1
f 31/31/1 32/32/1 21/21/1
f 32/32/1 33/33/1 21/21/1
f 33/33/1 34/34/1 21/21/1
f 34/34/1 35/35/1 21/21/1
f 35/35/1 36/36/1 21/21/1
f 4/4/1 2/2/1 1/1/1
f 1/1/1 3/3/1 4/4/1
f 20/20/1 19/19/1 2/2/1
f 2/2/1 18/18/1 20/20/1
f 22/22/1 21/21/1 19/19/1
f 19/19/1 20/20/1 22/22/1
f 38/38/1 37/37/1 21/21/1
f 21/21/1 36/36/1 38/38/1
f 40/40/1 3/3/1 1/1/1
f 1/1/1 39/39/1 40/40/1
f 42/42/1 37/37/1 38/38/1
f 38/38/1 41/41/1 42/42/1
f 44/44/1 42/42/1 41/41/1
f 41/41/1 43/43/1 44/44/1
f 43/43/1 40/40/1 39/39/1
f 39/39/1 44/44/1 43/43/1

