# ProBuilder 5.2.3
# https://unity3d.com/unity/features/worldbuilding/probuilder
# 08/12/2024 02:11:11 a. m.

mtllib ./Cylinder_(14).mtl
o Cylinder (14)

g Cylinder (14)
v 1.513111 2.999993 2.905201
v -0.4356892 2.999994 2.818362
v 1.513111 2.999995 4.889929
v -3.582052 2.999999 4.912897
v -0.8538417 2.999995 2.560073
v -1.185689 2.999996 2.146665
v -1.383614 2.999996 1.854041
v -1.564416 2.999995 1.5
v -3.582052 2.999991 1.500001
v -1.383614 2.999997 1.145961
v -3.582053 2.999993 -4.672523
v -1.185689 2.999996 0.8533358
v -0.8538412 2.999995 0.4399289
v -0.4356892 2.999993 0.181638
v 1.513111 2.999992 0.09480118
v 1.513112 2.999989 -4.672523
v -0.4356873 1.515419 2.818361
v 1.513113 1.515415 2.9052
v -0.8538399 1.515419 2.560071
v -1.185687 1.515419 2.146663
v -1.383612 1.515419 1.85404
v -1.564415 1.515419 1.499999
v -1.383612 1.515418 1.145959
v -1.185687 1.515416 0.8533338
v -0.8538394 1.515414 0.439927
v -0.4356873 1.515412 0.181636
v 1.513113 1.515409 0.09479952
v 1.51312 0.03084203 2.90519
v -0.4356803 0.03083861 2.818352
v 1.297839 0.03083861 4.889919
v -3.582044 0.03083396 4.912886
v -0.8538328 0.0308373 2.560062
v -1.18568 0.03083718 2.146654
v -1.383605 0.03083515 1.85403
v -1.564407 0.0308367 1.499989
v -3.582044 0.03084087 1.49999
v -1.383605 0.03083539 1.14595
v -3.582044 0.03082413 -4.672535
v -1.18568 0.03083599 0.8533249
v -0.8538324 0.03083777 0.4399181
v -0.4356803 0.03083974 0.1816271
v 1.51312 0.03084273 0.09479101
v 1.297839 0.03082895 -4.672535

vt 5.960464E-07 7.577724
vt 1.948801 7.490885
vt 4.768372E-07 9.562452
vt 5.095164 9.58542
vt 2.366954 7.232595
vt 2.698801 6.819187
vt 2.896725 6.526564
vt 3.077528 6.172523
vt 5.095164 6.172523
vt 2.896725 5.818483
vt 5.095165 0
vt 2.698801 5.525858
vt 2.366953 5.112452
vt 1.948801 4.85416
vt 3.576279E-07 4.767323
vt 0 0
vt 1.948809 2.969157
vt 8.821487E-06 2.969155
vt 1.948807 1.484582
vt 7.033348E-06 1.484578
vt 2.366962 2.969157
vt 2.36696 1.484582
vt 0.413408 2.969161
vt 0.4134099 1.484584
vt 0.7060317 2.969161
vt 0.7060331 1.484584
vt 1.060072 2.96916
vt 1.060074 1.484584
vt 1.414112 2.969162
vt 1.414114 1.484582
vt 1.706737 2.969161
vt 1.706739 1.484581
vt 2.120144 2.96916
vt 2.120146 1.484579
vt 0.4181521 2.969156
vt 0.4181539 1.484575
vt 5.095164 7.577725
vt 3.146364 7.490887
vt 4.879883 9.562454
vt 4.768372E-07 9.585421
vt 2.728211 7.232597
vt 2.396364 6.819189
vt 2.19844 6.526565
vt 2.017637 6.172524
vt 4.768372E-07 6.172525
vt 2.19844 5.818485
vt 2.396364 5.52586
vt 2.728212 5.112453
vt 3.146364 4.854162
vt 5.095164 4.767326
vt 4.879883 0
vt 1.9488 1.311302E-06
vt 2.366953 0
vt 0.413419 2.026558E-06
vt 0.7060426 0
vt 1.060083 1.549721E-06
vt 1.414123 2.384186E-07
vt 1.706748 8.34465E-07
vt 2.120155 2.622604E-06
vt 0.4181609 1.966953E-06

vn 8.992113E-07 1 -9.610127E-07
vn 0.2944969 1.432227E-06 -0.9556524
vn 0.04451604 1.17713E-06 -0.9990087
vn 0.6622862 1.64962E-06 -0.7492509
vn 0.8047486 1.62232E-06 -0.5936158
vn 0.8610695 1.457965E-06 -0.5084873
vn 1 1.07292E-06 5.354178E-07
vn 0.8610697 2.795073E-07 0.508487
vn 0.8047486 1.448308E-07 0.5936158
vn 0.6622863 -1.582033E-07 0.7492509
vn 0.2944976 -8.449743E-07 0.9556522
vn 0.04451493 -1.060854E-06 0.9990087
vn 1.824787E-06 -1 -1.527009E-06

usemtl Mat_StoneWall
f 2/2/1 5/5/1 4/4/1
f 5/5/1 6/6/1 4/4/1
f 6/6/1 7/7/1 4/4/1
f 10/10/1 12/12/1 11/11/1
f 12/12/1 13/13/1 11/11/1
f 13/13/1 14/14/1 11/11/1
f 31/40/13 32/41/13 29/38/13
f 31/40/13 33/42/13 32/41/13
f 31/40/13 34/43/13 33/42/13
f 38/16/13 39/47/13 37/46/13
f 38/16/13 40/48/13 39/47/13
f 38/16/13 41/49/13 40/48/13
f 3/3/1 1/1/1 2/2/1
f 2/2/1 4/4/1 3/3/1
f 4/4/1 7/7/1 8/8/1
f 8/8/1 9/9/1 4/4/1
f 9/9/1 8/8/1 10/10/1
f 10/10/1 11/11/1 9/9/1
f 11/11/1 14/14/1 15/15/1
f 15/15/1 16/16/1 11/11/1
f 17/19/2 2/17/2 1/18/3
f 1/18/3 18/20/3 17/19/2
f 19/22/4 5/21/4 2/17/2
f 2/17/2 17/19/2 19/22/4
f 20/24/5 6/23/5 5/18/4
f 5/18/4 19/20/4 20/24/5
f 21/26/6 7/25/6 6/23/5
f 6/23/5 20/24/5 21/26/6
f 22/28/7 8/27/7 7/25/6
f 7/25/6 21/26/6 22/28/7
f 23/30/8 10/29/8 8/27/7
f 8/27/7 22/28/7 23/30/8
f 24/32/9 12/31/9 10/29/8
f 10/29/8 23/30/8 24/32/9
f 25/34/10 13/33/10 12/31/9
f 12/31/9 24/32/9 25/34/10
f 26/36/11 14/35/11 13/18/10
f 13/18/10 25/20/10 26/36/11
f 27/22/12 15/21/12 14/35/11
f 14/35/11 26/36/11 27/22/12
f 30/39/13 31/40/13 29/38/13
f 29/38/13 28/37/13 30/39/13
f 31/40/13 36/45/13 35/44/13
f 35/44/13 34/43/13 31/40/13
f 36/45/13 38/16/13 37/46/13
f 37/46/13 35/44/13 36/45/13
f 38/16/13 43/51/13 42/50/13
f 42/50/13 41/49/13 38/16/13
f 17/19/2 18/20/3 28/16/3
f 28/16/3 29/52/2 17/19/2
f 19/22/4 17/19/2 29/52/2
f 29/52/2 32/53/4 19/22/4
f 20/24/5 19/20/4 32/16/4
f 32/16/4 33/54/5 20/24/5
f 21/26/6 20/24/5 33/54/5
f 33/54/5 34/55/6 21/26/6
f 22/28/7 21/26/6 34/55/6
f 34/55/6 35/56/7 22/28/7
f 23/30/8 22/28/7 35/56/7
f 35/56/7 37/57/8 23/30/8
f 24/32/9 23/30/8 37/57/8
f 37/57/8 39/58/9 24/32/9
f 25/34/10 24/32/9 39/58/9
f 39/58/9 40/59/10 25/34/10
f 26/36/11 25/20/10 40/16/10
f 40/16/10 41/60/11 26/36/11
f 27/22/12 26/36/11 41/60/11
f 41/60/11 42/53/12 27/22/12

