# ProBuilder 5.2.3
# https://unity3d.com/unity/features/worldbuilding/probuilder
# 08/12/2024 02:03:05 a. m.

mtllib ./Cylinder_(11).mtl
o Cylinder (11)

g Cylinder (11)
v -1.564416 2.999995 1.5
v -1.383614 2.999997 1.145961
v -3.582052 2.999991 1.500001
v -3.582052 2.999994 -3.129779
v -1.185689 2.999996 0.8533358
v -0.8538412 2.999995 0.4399289
v -0.4356892 2.999993 0.181638
v 1.513111 2.999991 0.09480117
v 1.513111 2.99999 -3.129779
v -1.383612 1.515418 1.145959
v -1.564415 1.515419 1.499999
v -1.185687 1.515416 0.8533338
v -0.8538394 1.515414 0.439927
v -0.4356873 1.515412 0.181636
v 1.513113 1.515407 0.0947995
v -1.564407 0.0308367 1.499989
v -1.383605 0.03083539 1.14595
v -3.582044 0.03084087 1.49999
v -3.582044 0.03082598 -3.129768
v -1.18568 0.03083599 0.8533249
v -0.8538324 0.03083777 0.4399181
v -0.4356803 0.03083974 0.1816271
v 1.51312 0.03084158 0.09479043
v 1.51312 0.03082982 -3.129768

vt 3.077528 4.629779
vt 2.896725 4.27574
vt 5.095164 4.62978
vt 5.095164 0
vt 2.698801 3.983115
vt 2.366953 3.569708
vt 1.948801 3.311417
vt 3.576279E-07 3.22458
vt 0 2.384186E-07
vt 0.3540395 2.969161
vt 0 2.96916
vt 0.3540416 1.484582
vt 1.430511E-06 1.484584
vt 0.6466644 2.969161
vt 0.6466664 1.484581
vt 1.060071 2.96916
vt 1.060073 1.484579
vt 0.4181521 2.969156
vt 0.4181539 1.484575
vt 2.366952 2.969153
vt 2.366954 1.48457
vt 2.017637 4.629758
vt 2.19844 4.275718
vt 4.768372E-07 4.629758
vt 2.396364 3.983093
vt 2.728212 3.569686
vt 3.146364 3.311395
vt 5.095164 3.224559
vt 0.3540505 0
vt 0.6466753 5.960464E-07
vt 1.060082 2.384186E-06
vt 0.4181609 1.966953E-06
vt 2.366961 3.805384E-06

vn -2.245177E-06 1 2.893964E-06
vn 0.8610697 2.795073E-07 0.508487
vn 0.8905887 4.716331E-07 0.4548097
vn 0.8047486 1.448308E-07 0.5936158
vn 0.6622863 -1.582033E-07 0.7492509
vn 0.2944976 -8.44051E-07 0.9556522
vn 0.04451495 -1.060854E-06 0.9990087
vn -2.067927E-06 -1 2.64777E-06

usemtl Mat_StoneWall
f 2/2/1 5/5/1 4/4/1
f 5/5/1 6/6/1 4/4/1
f 6/6/1 7/7/1 4/4/1
f 19/9/8 20/25/8 17/23/8
f 19/9/8 21/26/8 20/25/8
f 19/9/8 22/27/8 21/26/8
f 3/3/1 1/1/1 2/2/1
f 2/2/1 4/4/1 3/3/1
f 4/4/1 7/7/1 8/8/1
f 8/8/1 9/9/1 4/4/1
f 10/12/2 2/10/2 1/11/3
f 1/11/3 11/13/3 10/12/2
f 12/15/4 5/14/4 2/10/2
f 2/10/2 10/12/2 12/15/4
f 13/17/5 6/16/5 5/14/4
f 5/14/4 12/15/4 13/17/5
f 14/19/6 7/18/6 6/11/5
f 6/11/5 13/13/5 14/19/6
f 15/21/7 8/20/7 7/18/6
f 7/18/6 14/19/6 15/21/7
f 18/24/8 19/9/8 17/23/8
f 17/23/8 16/22/8 18/24/8
f 19/9/8 24/4/8 23/28/8
f 23/28/8 22/27/8 19/9/8
f 10/12/2 11/13/3 16/9/3
f 16/9/3 17/29/2 10/12/2
f 12/15/4 10/12/2 17/29/2
f 17/29/2 20/30/4 12/15/4
f 13/17/5 12/15/4 20/30/4
f 20/30/4 21/31/5 13/17/5
f 14/19/6 13/13/5 21/9/5
f 21/9/5 22/32/6 14/19/6
f 15/21/7 14/19/6 22/32/6
f 22/32/6 23/33/7 15/21/7

