# ProBuilder 5.2.3
# https://unity3d.com/unity/features/worldbuilding/probuilder
# 26/01/2025 10:45:15 a. m.

mtllib ./Sprite_(1).mtl
o Sprite (1)

g Sprite (1)
v 3 3 -1.999913
v 7 3 -1.999901
v 3 3.128662E-10 -1.9999
v 7 -3.57315E-07 -1.999889
v 2.999997 4.000002 -1.000001
v 6.999997 4.000001 -0.9999893
v 2.999995 4.000003 -8.34465E-07
v 6.999994 4.000003 1.072884E-05

vt -3 0
vt -3 4
vt 9.680078E-11 0
vt 9.680078E-11 4
vt -2.121478 0
vt -2.121478 4
vt -3.53563 0
vt -3.53563 4
vt 0 1.000004
vt 4 1.000004
vt 0 2.000004
vt 4 2.000004

vn -2.861023E-06 4.172325E-06 1
vn -2.10743E-06 -0.7070749 0.7071387
vn -1.192121E-07 -1 9.536739E-07

usemtl ProBuilder_Default_URP
f 3/3/1 4/4/1 2/2/1 1/1/1
f 6/8/2 5/7/2 1/5/2 2/6/2
f 8/12/3 7/11/3 5/9/3 6/10/3

